<?xml version="1.0" encoding="UTF-8"?>
<svg width="456" height="456" viewBox="0 0 456 456" xmlns="http://www.w3.org/2000/svg">
  <!-- Background with rounded corners -->
  <defs>
    <linearGradient id="bgGradient" x1="0%" y1="0%" x2="100%" y2="100%">
      <stop offset="0%" style="stop-color:#5946D2"/>
      <stop offset="100%" style="stop-color:#7B68EE"/>
    </linearGradient>
  </defs>
  
  <!-- Main background -->
  <rect x="0" y="0" width="456" height="456" rx="80" ry="80" fill="url(#bgGradient)"/>
  
  <!-- Shopping Cart Icon -->
  <g transform="translate(128, 118)" fill="white">
    <!-- Cart body -->
    <path d="M0 20 L30 20 L50 140 L180 140 L200 55 L70 55 L70 35 L210 35 L185 155 L40 155 L15 25 L0 25 Z" 
          stroke="white" stroke-width="8" fill="none" stroke-linejoin="round" stroke-linecap="round"/>
    
    <!-- Cart wheels -->
    <circle cx="75" cy="185" r="20" fill="white"/>
    <circle cx="165" cy="185" r="20" fill="white"/>
    
    <!-- Barcode lines on cart -->
    <rect x="80" y="75" width="8" height="50" fill="white"/>
    <rect x="95" y="75" width="4" height="50" fill="white"/>
    <rect x="105" y="75" width="10" height="50" fill="white"/>
    <rect x="122" y="75" width="6" height="50" fill="white"/>
    <rect x="135" y="75" width="12" height="50" fill="white"/>
    <rect x="155" y="75" width="4" height="50" fill="white"/>
    <rect x="165" y="75" width="8" height="50" fill="white"/>
  </g>
</svg>
